<?xml version="1.0" encoding="UTF-8"?>
<svg width="19px" height="19px" viewBox="0 0 19 19" version="1.1" xmlns="http://www.w3.org/2000/svg" xmlns:xlink="http://www.w3.org/1999/xlink">
    <!-- Generator: Sketch 51.2 (57519) - http://www.bohemiancoding.com/sketch -->
    <title>Combined Shape</title>
    <desc>Created with Sketch.</desc>
    <defs></defs>
    <g id="Page-1" stroke="none" stroke-width="1" fill="none" fill-rule="evenodd">
        <g id="Market-Scroll" transform="translate(-98.000000, -792.000000)" fill="#FFFFFF" fill-rule="nonzero">
            <g id="Group-3-Copy" transform="translate(75.000000, 779.000000)">
                <g id="Group-2">
                    <g id="Group-4">
                        <path d="M33.5853993,22.500004 L41.7751913,30.6897786 C42.0748867,30.9895112 42.0748867,31.4754587 41.7752284,31.7752284 C41.6254178,31.9250761 41.4289606,32 41.2325406,32 C41.0361206,32 40.8396635,31.9250761 40.6898157,31.7751913 L32.5000139,23.5853894 L24.3102492,31.7751542 C24.1603643,31.9250761 23.9639443,32 23.7675243,32 C23.5711043,32 23.3746472,31.9251133 23.2247994,31.7751913 C22.9250669,31.4754587 22.9250669,30.9895112 23.2247994,30.6897786 L31.41461,22.4999855 L23.2247994,14.310175 C22.9250669,14.0104424 22.9250669,13.5244949 23.2247994,13.2247994 C23.5244949,12.9250669 24.0104795,12.9250669 24.310175,13.2247994 L32.4999953,21.4146024 L40.6898157,13.2247994 C40.9895483,12.9250669 41.4754959,12.9250669 41.7752284,13.2247994 C42.0749238,13.524532 42.0749238,14.0104795 41.7752284,14.310175 L33.5853993,22.500004 Z" id="Combined-Shape"></path>
                    </g>
                </g>
            </g>
        </g>
    </g>
</svg>