<?xml version="1.0" encoding="UTF-8"?>
<svg width="27px" height="20px" viewBox="0 0 27 20" version="1.1" xmlns="http://www.w3.org/2000/svg" xmlns:xlink="http://www.w3.org/1999/xlink">
    <!-- Generator: Sketch 51.2 (57519) - http://www.bohemiancoding.com/sketch -->
    <title>Shape</title>
    <desc>Created with Sketch.</desc>
    <defs></defs>
    <g id="Page-1" stroke="none" stroke-width="1" fill="none" fill-rule="evenodd">
        <g id="Market-Scroll" transform="translate(-95.000000, -722.000000)" fill="#FFFFFF" fill-rule="nonzero">
            <g id="Group-3" transform="translate(75.000000, 709.000000)">
                <g id="Group-2">
                    <path d="M45.9167897,13.9598507 C45.2977362,13.3407972 44.4748606,13 43.5992864,13 C42.7239173,13 41.9010417,13.3407972 41.2819882,13.9598507 L30.2046424,25.0371965 L25.5930118,20.425771 C24.9741634,19.8067175 24.1510827,19.4657152 23.2757136,19.4657152 C22.4003445,19.4657152 21.5774688,19.8067175 20.9584154,20.425771 C19.6805282,21.7034531 19.6805282,23.7826854 20.9584154,25.0603675 L27.8873442,31.9892962 C28.5061926,32.6083497 29.3292733,32.949147 30.2046424,32.949147 C31.0800115,32.949147 31.9030922,32.6083497 32.5219407,31.9892962 L45.9167897,18.5946522 C46.5356381,17.9755987 46.8766404,17.1527231 46.8766404,16.2771489 C46.8766404,15.4017798 46.5356381,14.5789042 45.9167897,13.9598507 Z M44.7855151,17.4633776 L31.3906661,30.8580216 C31.0738599,31.1748278 30.6526821,31.3493274 30.2046424,31.3493274 C29.7566027,31.3493274 29.3354249,31.1748278 29.0186188,30.8580216 L22.08969,23.9290929 C21.4355725,23.2751804 21.4355725,22.210958 22.08969,21.5570456 C22.4064961,21.2402395 22.8276739,21.0657398 23.2757136,21.0657398 C23.7237533,21.0657398 24.1449312,21.2402395 24.4617372,21.5570456 L29.6389026,26.734211 C29.9514026,27.0465059 30.4578822,27.0465059 30.7701772,26.734211 L42.4132628,15.0911253 C42.7300689,14.7743192 43.1512467,14.5998195 43.5992864,14.5998195 C44.0473261,14.5998195 44.468504,14.7743192 44.7853101,15.0911253 C45.1021161,15.4079314 45.2766158,15.8291092 45.2766158,16.2771489 C45.2766158,16.7253937 45.1023212,17.1465715 44.7855151,17.4633776 Z" id="Shape"></path>
                </g>
            </g>
        </g>
    </g>
</svg>